<?xml version="1.0" encoding="iso-8859-1"?>
<!-- Uploaded to: SVG Repo, www.svgrepo.com, Generator: SVG Repo Mixer Tools -->
<svg version="1.1" id="Layer_1" xmlns="http://www.w3.org/2000/svg" xmlns:xlink="http://www.w3.org/1999/xlink" 
	 viewBox="0 0 512 512" xml:space="preserve">
<path style="fill:#A5B8C4;" d="M459.926,459.885V191.581c0-6.549-5.338-11.859-11.924-11.859H63.998
	c-6.586,0-11.924,5.309-11.924,11.859v268.304H459.926z"/>
<rect x="82.923" y="221.8" style="fill:#E2F7F6;" width="346.154" height="216.127"/>
<rect x="82.923" y="414.824" style="fill:#B7ED69;" width="346.154" height="23.103"/>
<rect x="137.927" y="414.824" style="fill:#FFFFFF;" width="291.15" height="23.103"/>
<path style="fill:#FFBAC5;" d="M256.152,382.433c-2.014,0.005-3.948-0.793-5.373-2.211l-52.46-52.192
	c-7.417-7.372-11.512-17.184-11.53-27.627c-0.019-10.446,4.042-20.276,11.429-27.673c7.388-7.405,17.226-11.486,27.694-11.507
	c10.47-0.021,20.32,4.03,27.736,11.405l2.305,2.287l2.297-2.297c7.388-7.401,17.222-11.483,27.694-11.503
	c10.468-0.021,20.32,4.03,27.737,11.403c7.417,7.373,11.513,17.186,11.533,27.627c0.019,10.446-4.04,20.275-11.429,27.676
	l-52.271,52.382C260.093,381.626,258.164,382.431,256.152,382.433z"/>
<path style="fill:#E6E6E6;" d="M497.871,498.939c0,2.873-2.351,5.224-5.225,5.224H19.354c-2.873,0-5.224-2.351-5.224-5.224v-33.83
	c0-2.873,2.351-5.224,5.224-5.224h473.294c2.873,0,5.224,2.351,5.224,5.224v33.83H497.871z"/>
<path style="opacity:0.1;enable-background:new    ;" d="M79.457,498.939v-33.83c0-2.873,2.351-5.224,5.224-5.224H19.354
	c-2.873,0-5.224,2.351-5.224,5.224v33.83c0,2.873,2.351,5.224,5.224,5.224h65.329C81.808,504.163,79.457,501.812,79.457,498.939z"/>
<path style="fill:#AADDC0;" d="M321.404,476.748c0,2.873-2.351,5.224-5.224,5.224H195.82c-2.873,0-5.224-2.351-5.224-5.224v-11.639
	c0-2.873,2.351-5.224,5.224-5.224h120.36c2.873,0,5.224,2.351,5.224,5.224V476.748z"/>
<path style="fill:#F9EEB7;" d="M255.999,161.677c-2.204,0-4.241-1.169-5.343-3.068l-11.002-18.947h-70.112
	c-3.407,0-6.169-2.746-6.169-6.135V13.972c0-3.39,2.763-6.136,6.169-6.136h172.912c3.408,0,6.17,2.746,6.17,6.136v119.556
	c0,3.389-2.763,6.135-6.17,6.135h-70.112l-11.001,18.947C260.241,160.508,258.204,161.677,255.999,161.677z"/>
<rect x="82.923" y="221.8" style="opacity:0.1;enable-background:new    ;" width="21.442" height="216.127"/>
<g style="opacity:0.1;">
	<path d="M184.817,133.529V13.972c0-3.39,2.763-6.136,6.169-6.136h-21.442c-3.407,0-6.169,2.746-6.169,6.136v119.556
		c0,3.389,2.763,6.135,6.169,6.135h21.442C187.579,139.663,184.817,136.917,184.817,133.529z"/>
</g>
<path style="fill:#FF8163;" d="M256.09,110.211c-1.195,0.003-2.343-0.47-3.189-1.312l-31.138-30.979
	c-4.402-4.376-6.833-10.2-6.844-16.398c-0.012-6.2,2.399-12.034,6.783-16.426c4.385-4.395,10.224-6.817,16.437-6.829
	c6.214-0.013,12.061,2.392,16.462,6.77l1.369,1.357l1.364-1.364c4.385-4.393,10.222-6.816,16.437-6.827
	c6.213-0.013,12.061,2.392,16.463,6.769c4.402,4.376,6.834,10.201,6.845,16.398c0.011,6.2-2.398,12.035-6.784,16.428l-31.025,31.091
	C258.429,109.732,257.285,110.21,256.09,110.211z"/>
<g style="opacity:0.1;">
	<path d="M272.474,369.186l-52.46-52.192c-7.417-7.372-11.512-17.184-11.53-27.626c-0.019-10.446,4.042-20.276,11.429-27.673
		c0.001-0.001,0.003-0.003,0.005-0.005c-8.189,1.263-15.741,5.069-21.699,11.039c-7.387,7.397-11.448,17.227-11.429,27.673
		c0.019,10.442,4.114,20.255,11.53,27.627l52.46,52.192c1.425,1.418,3.359,2.216,5.373,2.211c2.012-0.002,3.941-0.807,5.36-2.23
		l10.978-11.001C272.484,369.196,272.479,369.192,272.474,369.186z"/>
</g>
<path style="opacity:0.1;enable-background:new    ;" d="M243.458,66.885c-4.402-4.375-6.833-10.2-6.844-16.398
	c-0.007-4.352,1.201-8.514,3.425-12.131c-0.629-0.049-1.26-0.09-1.898-0.089c-6.213,0.013-12.052,2.435-16.437,6.829
	c-4.384,4.391-6.795,10.225-6.783,16.426c0.011,6.198,2.442,12.023,6.844,16.398l31.138,30.979c0.846,0.842,1.994,1.316,3.189,1.312
	c1.195-0.001,2.34-0.479,3.182-1.324l13.154-13.182L243.458,66.885z"/>
<path d="M429.077,213.967H82.923c-4.328,0-7.837,3.508-7.837,7.837v216.129c0,4.329,3.509,7.837,7.837,7.837h346.154
	c4.328,0,7.837-3.508,7.837-7.837V221.804C436.914,217.476,433.405,213.967,429.077,213.967z M421.24,229.64v177.347H90.76V229.64
	H421.24z M90.76,422.661h39.33v7.434H90.76V422.661z M145.763,430.096v-7.434H421.24v7.434H145.763z"/>
<path d="M245.25,385.775c2.87,2.857,6.836,4.494,10.871,4.494c0.013,0,0.025,0,0.039,0c4.061-0.004,8.035-1.657,10.899-4.531
	l18.629-18.668c3.057-3.064,3.052-8.026-0.011-11.083c-3.064-3.058-8.026-3.053-11.082,0.011l-18.459,18.497l-52.292-52.024
	c-5.93-5.893-9.203-13.736-9.218-22.083c-0.016-8.35,3.23-16.206,9.14-22.124c5.906-5.919,13.777-9.189,22.161-9.207
	c0.022,0,0.042,0,0.063,0c8.355,0,16.214,3.24,22.139,9.132l2.306,2.286c3.064,3.039,8.009,3.028,11.059-0.022l2.302-2.302
	c5.91-5.919,13.78-9.188,22.163-9.203c0.022,0,0.041,0,0.063,0c8.355,0,16.214,3.239,22.134,9.125
	c5.931,5.895,9.204,13.737,9.22,22.084c0.016,8.35-3.23,16.208-9.14,22.127l-9.66,9.681c-3.057,3.065-3.051,8.026,0.012,11.083
	c3.064,3.057,8.025,3.052,11.083-0.011l9.659-9.68c8.87-8.885,13.741-20.685,13.72-33.228c-0.022-12.539-4.939-24.319-13.844-33.17
	c-8.877-8.825-20.658-13.683-33.182-13.683c-0.031,0-0.064,0-0.094,0c-11.095,0.021-21.594,3.846-29.998,10.851
	c-8.409-6.958-18.885-10.743-29.942-10.743c-0.031,0-0.064,0-0.094,0c-12.567,0.026-24.366,4.93-33.223,13.806
	c-8.871,8.883-13.744,20.682-13.721,33.226c0.022,12.541,4.939,24.321,13.841,33.167L245.25,385.775z"/>
<path d="M255.478,208.457h1.045c4.328,0,7.837-3.508,7.837-7.837c0-4.329-3.509-7.837-7.837-7.837h-1.045
	c-4.328,0-7.837,3.508-7.837,7.837C247.641,204.949,251.15,208.457,255.478,208.457z"/>
<path d="M492.646,452.048h-24.883V191.581c0-10.861-8.865-19.695-19.761-19.695H63.998c-10.896,0-19.761,8.835-19.761,19.695
	v260.467H19.354c-7.202,0-13.061,5.859-13.061,13.061v33.83c0,7.202,5.859,13.061,13.061,13.061h91.406
	c4.328,0,7.837-3.508,7.837-7.837s-3.509-7.837-7.837-7.837H21.966v-28.605H182.76v9.027c0,7.202,5.859,13.061,13.061,13.061h120.36
	c7.201,0,13.061-5.859,13.061-13.061v-9.027h160.794v28.605H147.331c-4.328,0-7.837,3.508-7.837,7.837s3.509,7.837,7.837,7.837
	h345.316c7.203,0,13.061-5.859,13.061-13.061v-33.83C505.708,457.907,499.849,452.048,492.646,452.048z M313.568,474.136H198.432
	v-6.415h115.135V474.136z M59.91,452.048V191.581c0-2.217,1.834-4.022,4.088-4.022h384.004c2.254,0,4.088,1.805,4.088,4.022v260.467
	H59.91z"/>
<path d="M169.543,147.5h65.6l8.736,15.044c2.496,4.299,7.14,6.969,12.12,6.969c4.981,0,9.625-2.671,12.121-6.969l8.735-15.044
	h21.986c4.328,0,7.837-3.508,7.837-7.837c0-4.329-3.509-7.837-7.837-7.837h-26.497c-2.793,0-5.375,1.487-6.777,3.902L256,152.206
	l-9.568-16.479c-1.402-2.414-3.984-3.901-6.777-3.901h-68.444V15.673h169.579v116.153h-11.646c-4.328,0-7.837,3.508-7.837,7.837
	c0,4.329,3.509,7.837,7.837,7.837h13.313c7.724,0,14.007-6.267,14.007-13.971V13.972C356.463,6.268,350.179,0,342.456,0H169.543
	c-7.723,0-14.006,6.268-14.006,13.972v119.556C155.537,141.233,161.82,147.5,169.543,147.5z"/>
<path d="M255.951,35.985c-5.176-3.611-11.334-5.556-17.825-5.556c-8.308,0.017-16.11,3.259-21.968,9.128
	c-5.867,5.875-9.09,13.681-9.075,21.977c0.015,8.295,3.266,16.087,9.153,21.939l31.137,30.978c2.329,2.318,5.421,3.593,8.705,3.593
	c0.002,0,0.016,0,0.018,0c3.251-0.003,6.431-1.326,8.723-3.625l31.024-31.09c5.867-5.877,9.09-13.682,9.075-21.978
	c-0.015-8.294-3.266-16.087-9.156-21.941c-5.869-5.835-13.661-9.048-22.003-9.048C267.29,30.376,261.127,32.345,255.951,35.985z
	 M284.712,50.528c2.915,2.899,4.525,6.753,4.533,10.854c0.007,4.104-1.588,7.967-4.494,10.877l-28.677,28.738l-28.784-28.636
	c-2.915-2.896-4.524-6.752-4.532-10.854c-0.007-4.104,1.588-7.965,4.494-10.875c2.906-2.912,6.779-4.52,10.938-4.529
	c4.112,0,7.978,1.593,10.896,4.497l1.369,1.357c3.064,3.039,8.009,3.028,11.059-0.023l1.368-1.368
	c2.908-2.912,6.78-4.52,10.939-4.528C277.931,46.039,281.799,47.633,284.712,50.528z"/>
<path style="opacity:0.1;enable-background:new    ;" d="M95.788,459.885V191.581c0-6.549,5.338-11.859,11.924-11.859H63.998
	c-6.586,0-11.924,5.309-11.924,11.859v268.304H95.788z"/>
</svg>